<svg id="svg" version="1.1" xmlns="http://www.w3.org/2000/svg" xmlns:xlink="http://www.w3.org/1999/xlink" width="400" height="400" viewBox="0, 0, 400,400">
<g xmlns="http://www.w3.org/2000/svg" id="svgg"><rect x="0" y="0" width="400" height="400" fill="#33343b"/><path id="path1" fill-rule="evenodd" d="M181.001 136.405 C 179.423 138.092,179.208 140.661,180.344 144.271 C 183.594 154.599,185.965 158.125,189.659 158.125 C 191.009 158.125,191.773 158.845,191.594 159.949 C 191.161 162.617,186.811 161.823,183.385 158.451 L 181.588 156.682 179.877 156.543 C 177.454 156.347,176.667 156.523,176.667 157.262 C 176.667 158.415,175.992 158.792,173.438 159.067 C 164.594 160.017,158.415 169.393,161.428 177.292 C 162.579 180.310,164.357 182.703,166.142 183.635 C 168.337 184.782,168.902 185.909,167.822 186.989 C 166.834 187.976,164.600 187.101,162.345 184.844 C 160.823 183.319,160.713 183.302,158.433 184.227 C 153.540 186.212,148.847 191.334,147.704 195.938 C 146.609 200.347,147.538 208.007,149.700 212.385 C 150.620 214.250,150.512 214.505,147.916 216.563 C 137.582 224.755,133.147 237.015,136.688 247.598 C 138.930 254.302,146.565 263.692,151.979 266.404 C 159.797 270.320,172.510 269.321,186.979 263.653 C 192.303 261.567,192.977 261.349,199.792 259.496 C 207.914 257.288,227.171 256.211,229.010 257.862 C 230.171 258.904,229.059 260.208,227.011 260.208 C 224.846 260.208,221.458 261.082,221.458 261.640 C 221.458 262.421,224.343 263.266,232.500 264.876 C 242.267 266.803,256.288 265.836,262.271 262.823 C 267.443 260.218,270.876 255.981,272.575 250.104 C 275.097 241.379,275.387 235.160,273.654 226.955 C 272.032 219.278,269.737 214.978,265.193 211.107 C 261.768 208.189,260.373 207.429,257.091 206.692 L 256.287 206.511 255.938 207.422 C 255.361 208.934,254.051 209.443,253.192 208.490 C 252.498 207.718,252.506 207.451,253.297 205.190 L 254.055 203.021 254.053 198.646 C 254.050 192.723,253.046 188.349,250.396 182.730 C 249.309 180.424,249.182 179.744,249.698 179.006 C 250.205 178.283,248.307 175.752,246.660 174.954 C 245.773 174.525,245.712 174.568,245.551 175.742 C 245.254 177.913,243.585 180.292,242.359 180.292 C 240.829 180.292,240.401 178.821,241.449 177.168 C 245.385 170.962,236.391 158.170,226.002 155.198 C 221.597 153.937,213.652 154.941,211.180 157.070 C 209.518 158.502,207.936 157.555,208.460 155.442 C 208.758 154.239,211.883 152.524,214.994 151.857 L 216.034 151.634 215.737 150.923 C 213.640 145.906,207.334 142.750,196.836 141.466 C 189.508 140.570,184.899 138.966,182.071 136.329 L 181.538 135.832 181.001 136.405 M229.692 177.969 C 234.796 185.172,238.288 188.187,245.922 191.979 C 248.655 193.337,248.857 193.578,248.245 194.760 C 247.205 196.771,240.674 195.643,235.982 192.642 C 229.870 188.732,225.065 180.244,227.100 176.952 C 227.813 175.799,228.287 175.984,229.692 177.969 M180.286 178.756 C 182.532 181.426,178.451 189.585,172.770 193.781 C 167.917 197.367,160.454 198.954,159.264 196.653 C 158.747 195.655,158.993 195.136,160.257 194.562 C 168.051 191.018,172.544 187.411,177.008 181.113 C 179.308 177.867,179.451 177.765,180.286 178.756 M186.492 191.544 C 200.116 194.160,205.108 211.278,195.124 221.146 C 184.382 231.762,166.820 224.007,166.820 208.646 C 166.820 197.763,176.239 189.575,186.492 191.544 M229.688 191.963 C 242.305 195.416,246.447 211.678,237.091 221.034 C 226.531 231.594,209.049 223.866,209.066 208.646 C 209.078 197.302,219.220 189.098,229.688 191.963 M222.873 194.896 C 214.591 196.978,210.570 206.598,216.686 209.697 C 220.932 211.849,226.354 208.795,229.317 202.586 C 231.676 197.640,228.245 193.545,222.873 194.896 M181.070 195.431 C 175.084 196.489,170.564 202.933,172.676 207.398 C 175.506 213.380,183.642 211.421,187.395 203.854 C 189.825 198.956,186.462 194.478,181.070 195.431 M251.989 210.720 C 252.758 211.489,252.542 212.655,251.398 213.906 C 250.863 214.491,249.596 214.548,249.111 214.010 C 247.507 212.231,250.303 209.034,251.989 210.720 M231.527 211.659 C 229.645 212.502,229.022 214.262,230.192 215.433 C 230.975 216.216,231.906 216.238,232.992 215.500 C 235.478 213.811,234.201 210.462,231.527 211.659 M189.567 211.975 C 188.974 212.298,188.003 213.648,187.809 214.418 C 187.346 216.264,189.853 217.122,191.471 215.673 C 193.468 213.883,191.847 210.735,189.567 211.975 M210.060 240.205 C 215.200 241.986,218.122 245.867,216.058 248.174 C 215.275 249.048,213.720 249.091,211.767 248.291 C 207.796 246.663,203.020 246.764,199.756 248.543 C 198.476 249.241,195.823 249.515,195.008 249.034 C 192.586 247.603,194.065 243.498,197.708 241.538 C 198.109 241.322,198.484 241.092,198.542 241.026 C 198.704 240.839,202.163 239.780,203.274 239.578 C 205.112 239.243,208.074 239.517,210.060 240.205 " stroke="none" fill="#4b535b" style="/*! display: none; */"/><path id="path2" d="M179.827 133.129 C 176.798 135.659,175.895 138.973,176.959 143.646 C 177.486 145.958,180.097 153.339,181.012 155.104 C 183.244 159.407,189.345 162.839,191.007 160.726 C 191.911 159.577,191.214 158.333,189.666 158.333 C 186.208 158.333,183.901 155.366,181.266 147.530 C 179.041 140.913,178.892 138.987,180.433 136.747 C 181.229 135.591,181.224 135.590,183.483 137.078 C 187.209 139.533,190.364 140.526,196.699 141.238 C 206.433 142.333,213.023 145.382,215.445 149.910 C 216.457 151.803,216.464 151.782,214.783 152.161 C 212.778 152.614,210.056 153.822,209.224 154.628 C 207.490 156.310,209.104 158.665,210.906 157.083 C 213.635 154.687,221.761 153.614,226.282 155.053 C 236.618 158.340,245.250 170.363,241.875 176.771 C 240.953 178.521,240.891 178.859,241.366 179.537 C 242.927 181.766,245.959 176.865,245.526 172.813 C 244.373 162.030,232.576 151.456,221.606 151.373 C 219.159 151.354,219.148 151.352,219.043 150.833 C 217.753 144.505,209.051 139.538,196.979 138.240 C 190.166 137.507,186.497 136.134,183.190 133.081 C 181.800 131.798,181.413 131.804,179.827 133.129 M172.821 155.857 C 165.960 156.856,160.208 161.813,158.093 168.549 C 157.399 170.759,157.393 175.315,158.082 177.180 C 158.335 177.864,158.542 178.448,158.542 178.479 C 158.542 178.510,157.956 178.830,157.240 179.190 C 153.205 181.219,147.348 187.933,145.446 192.708 C 143.825 196.779,143.766 205.135,145.325 209.829 C 145.881 211.503,144.628 214.254,141.732 217.717 C 136.459 224.021,133.240 230.646,132.503 236.708 C 132.008 240.779,130.763 242.609,127.292 244.367 C 124.316 245.874,125.053 245.833,100.618 245.833 C 76.817 245.833,78.125 245.768,78.125 246.962 C 78.125 248.202,76.275 248.125,106.181 248.125 L 133.476 248.125 134.061 249.635 C 135.734 253.952,139.308 259.188,144.147 264.410 C 152.943 273.901,167.700 274.687,187.882 266.740 C 198.056 262.734,204.157 261.673,209.896 262.910 C 211.862 263.333,212.481 263.482,221.563 265.713 C 234.680 268.934,239.068 269.475,248.021 268.971 C 263.893 268.077,272.326 262.570,275.595 250.963 C 275.946 249.717,276.285 248.646,276.347 248.583 C 276.410 248.521,287.888 248.462,301.854 248.454 C 329.722 248.436,328.125 248.507,328.125 247.292 C 328.125 246.203,329.148 246.250,305.580 246.250 L 283.796 246.250 282.133 245.429 C 278.523 243.646,277.860 242.320,277.803 236.771 C 277.637 220.425,272.645 211.060,260.047 203.461 C 258.077 202.272,257.643 201.220,257.287 196.771 C 256.649 188.808,253.020 178.542,250.842 178.542 C 249.401 178.542,249.321 180.007,250.611 182.742 C 254.170 190.287,255.443 199.917,253.553 204.990 C 252.232 208.533,254.205 210.539,255.779 207.252 L 256.245 206.279 258.174 206.789 C 265.236 208.658,271.277 215.847,273.390 224.896 C 274.864 231.208,275.230 234.943,274.833 239.637 C 273.546 254.847,267.711 262.683,255.956 264.990 C 250.193 266.121,239.320 266.405,234.688 265.547 C 225.743 263.888,221.301 262.621,221.262 261.716 C 221.229 260.976,224.315 260.003,226.708 259.997 C 229.789 259.990,230.169 258.104,227.205 257.530 C 222.451 256.610,201.840 258.379,198.801 259.968 C 198.601 260.073,197.781 260.307,196.979 260.489 C 195.082 260.919,190.363 262.525,186.042 264.211 C 167.903 271.289,154.619 270.746,146.534 262.597 C 135.139 251.110,132.422 240.001,138.179 228.438 C 140.785 223.203,143.247 220.067,147.396 216.700 C 150.325 214.323,150.354 214.252,149.319 212.036 C 146.919 206.899,146.313 198.227,148.064 194.063 C 150.058 189.321,156.253 183.972,160.417 183.397 C 161.088 183.304,161.223 183.385,162.106 184.408 C 163.950 186.545,166.676 187.718,167.614 186.780 C 168.560 185.834,168.089 184.896,166.146 183.853 C 164.747 183.102,164.332 182.689,163.013 180.731 C 156.838 171.566,162.465 160.341,174.026 158.763 C 175.868 158.511,176.458 158.131,176.458 157.198 C 176.458 155.811,175.517 155.464,172.821 155.857 M286.528 160.013 C 283.755 160.847,283.788 165.751,286.573 166.670 C 288.411 167.277,291.482 164.169,290.454 162.741 C 290.317 162.551,290.154 162.255,290.091 162.083 C 289.440 160.302,288.118 159.534,286.528 160.013 M287.836 162.731 C 288.345 163.209,288.194 164.015,287.550 164.263 C 286.842 164.534,286.424 163.551,286.882 162.695 C 287.155 162.186,287.261 162.190,287.836 162.731 M111.790 166.689 C 110.782 167.810,110.601 168.488,111.161 169.048 C 112.257 170.144,114.943 167.460,114.075 166.136 C 113.539 165.318,112.880 165.478,111.790 166.689 M104.095 166.214 C 103.103 167.310,104.908 169.268,106.156 168.450 C 106.967 167.919,106.851 167.015,105.889 166.362 C 104.966 165.734,104.559 165.701,104.095 166.214 M105.111 171.897 C 103.914 172.948,104.172 174.427,105.552 174.427 C 106.238 174.427,107.481 173.053,107.492 172.281 C 107.510 171.085,106.265 170.884,105.111 171.897 M111.505 172.824 C 110.373 173.617,111.727 176.042,113.302 176.042 C 114.797 176.042,114.900 174.991,113.541 173.581 C 112.411 172.410,112.206 172.333,111.505 172.824 M227.307 177.007 C 225.305 179.552,229.542 187.711,234.933 191.694 C 240.170 195.563,248.678 196.913,248.293 193.814 C 248.221 193.240,248.328 193.306,244.167 191.269 C 240.577 189.512,237.428 187.251,234.722 184.485 C 232.954 182.679,232.076 181.599,229.507 178.073 C 228.224 176.312,227.956 176.182,227.307 177.007 M178.025 180.044 C 173.173 186.910,169.315 190.323,162.749 193.558 C 159.168 195.323,158.973 195.488,159.365 196.435 C 160.256 198.585,167.172 197.321,171.938 194.138 C 177.496 190.427,182.303 181.730,180.290 179.027 C 179.585 178.079,179.334 178.192,178.025 180.044 M312.825 191.736 C 312.574 191.920,312.411 192.378,312.342 193.090 L 312.239 194.167 311.374 194.167 C 309.029 194.167,308.884 196.392,311.215 196.616 C 312.231 196.714,312.292 196.752,312.292 197.305 C 312.292 199.624,314.475 200.069,314.624 197.781 C 314.682 196.891,314.746 196.786,315.358 196.580 C 316.410 196.226,316.788 195.742,316.548 195.059 C 316.364 194.536,316.088 194.371,314.844 194.041 C 314.685 193.998,314.583 193.610,314.583 193.042 C 314.583 191.659,313.763 191.050,312.825 191.736 M180.793 192.188 C 167.195 194.766,162.707 212.552,173.375 221.582 C 183.853 230.451,199.635 222.676,199.635 208.646 C 199.635 198.297,190.529 190.343,180.793 192.188 M221.979 192.491 C 208.378 196.082,205.011 213.705,216.303 222.194 C 225.996 229.481,239.951 223.043,241.483 210.579 C 242.856 199.406,232.425 189.733,221.979 192.491 M227.040 194.773 C 231.398 197.020,231.435 200.945,227.150 206.463 C 220.927 214.477,209.709 209.457,214.628 200.860 C 217.157 196.440,223.878 193.144,227.040 194.773 M184.626 195.324 C 186.845 196.080,188.708 198.765,188.485 200.886 C 188.122 204.350,184.013 209.560,180.694 210.764 C 174.927 212.858,169.827 207.065,172.604 201.578 C 174.753 197.332,180.993 194.086,184.626 195.324 M92.824 205.255 C 92.646 205.509,92.500 206.080,92.500 206.523 L 92.500 207.328 91.682 207.190 C 91.016 207.078,90.784 207.132,90.432 207.484 C 89.527 208.390,90.196 209.387,91.836 209.575 C 92.683 209.673,92.822 209.757,92.884 210.208 C 93.120 211.944,95.208 211.789,95.208 210.036 C 95.208 209.481,95.287 209.375,95.697 209.375 C 96.280 209.375,96.875 208.778,96.875 208.193 C 96.875 207.593,96.222 207.083,95.452 207.083 C 94.825 207.083,94.792 207.043,94.792 206.282 C 94.792 204.933,93.516 204.267,92.824 205.255 M249.614 211.142 C 248.837 212.028,248.711 213.253,249.339 213.822 C 250.633 214.993,252.990 212.497,251.934 211.076 C 251.285 210.203,250.417 210.228,249.614 211.142 M233.209 211.332 C 235.120 212.131,234.980 214.397,232.933 215.776 C 231.330 216.857,229.374 215.951,229.376 214.128 C 229.378 212.362,231.670 210.689,233.209 211.332 M191.547 211.698 C 193.042 212.379,192.884 215.066,191.286 216.152 C 189.374 217.451,187.080 216.197,187.725 214.206 C 188.403 212.117,190.068 211.024,191.547 211.698 M203.854 239.726 C 197.097 240.593,191.894 245.563,194.619 248.547 C 195.462 249.470,196.714 249.524,198.750 248.724 C 203.997 246.663,208.695 246.264,210.529 247.723 C 210.648 247.817,211.140 247.994,211.623 248.114 C 212.105 248.235,212.898 248.433,213.385 248.555 C 215.313 249.037,216.458 248.242,216.458 246.423 C 216.458 244.529,214.602 242.438,211.605 240.955 C 209.487 239.906,206.338 239.407,203.854 239.726 M333.958 246.395 C 333.159 246.680,332.889 247.651,333.452 248.214 C 333.984 248.746,342.085 248.698,342.572 248.161 C 343.061 247.620,343.000 247.179,342.368 246.682 C 341.830 246.259,334.992 246.025,333.958 246.395 " fill="#242424" fill-rule="evenodd" stroke="none"/><path id="path3" d="M182.101 132.135 C 182.148 132.164,182.469 132.422,182.813 132.708 L 183.438 133.229 182.932 132.656 C 182.655 132.341,182.334 132.083,182.221 132.083 C 182.107 132.083,182.053 132.107,182.101 132.135 M195.052 138.060 C 195.253 138.113,195.581 138.113,195.781 138.060 C 195.982 138.008,195.818 137.965,195.417 137.965 C 195.016 137.965,194.852 138.008,195.052 138.060 M179.435 140.104 C 179.436 140.677,179.477 140.887,179.524 140.570 C 179.572 140.253,179.571 139.785,179.522 139.528 C 179.472 139.272,179.433 139.531,179.435 140.104 M212.917 146.940 C 212.917 146.976,213.221 147.281,213.594 147.617 L 214.271 148.229 213.659 147.552 C 213.089 146.921,212.917 146.779,212.917 146.940 M218.229 148.958 C 218.407 149.302,218.599 149.583,218.657 149.583 C 218.714 149.583,218.615 149.302,218.438 148.958 C 218.260 148.615,218.067 148.333,218.010 148.333 C 217.953 148.333,218.051 148.615,218.229 148.958 M237.700 158.385 C 238.563 159.305,238.750 159.471,238.750 159.314 C 238.750 159.281,238.305 158.835,237.760 158.325 L 236.771 157.396 237.700 158.385 M162.596 160.885 L 161.563 161.979 162.656 160.945 C 163.258 160.377,163.750 159.885,163.750 159.852 C 163.750 159.696,163.557 159.869,162.596 160.885 M289.258 165.885 L 288.646 166.563 289.323 165.951 C 289.954 165.380,290.096 165.208,289.935 165.208 C 289.899 165.208,289.594 165.513,289.258 165.885 M106.458 171.194 C 106.745 171.247,107.120 171.398,107.292 171.530 C 107.564 171.740,107.567 171.723,107.318 171.406 C 107.161 171.205,106.787 171.054,106.485 171.070 L 105.938 171.098 106.458 171.194 M157.351 173.021 C 157.353 173.594,157.393 173.803,157.441 173.487 C 157.489 173.170,157.488 172.701,157.438 172.445 C 157.389 172.189,157.350 172.448,157.351 173.021 M114.177 175.717 C 114.040 175.882,113.677 176.055,113.370 176.102 L 112.813 176.188 113.353 176.219 C 113.661 176.237,114.056 176.071,114.271 175.833 C 114.478 175.604,114.598 175.417,114.537 175.417 C 114.476 175.417,114.314 175.552,114.177 175.717 M226.719 178.646 C 226.722 179.104,226.764 179.267,226.814 179.008 C 226.864 178.749,226.862 178.374,226.810 178.175 C 226.758 177.975,226.717 178.188,226.719 178.646 M157.031 179.077 C 156.223 179.516,156.315 179.667,157.135 179.250 C 157.921 178.850,158.060 178.747,157.795 178.758 C 157.690 178.763,157.346 178.907,157.031 179.077 M152.181 182.969 L 150.938 184.271 152.240 183.027 C 152.956 182.343,153.542 181.758,153.542 181.725 C 153.542 181.571,153.336 181.759,152.181 182.969 M231.250 188.399 C 231.250 188.434,231.555 188.739,231.927 189.076 L 232.604 189.688 231.992 189.010 C 231.422 188.379,231.250 188.238,231.250 188.399 M312.800 191.574 C 312.415 191.882,312.419 191.887,312.886 191.659 C 313.155 191.528,313.554 191.467,313.772 191.524 C 313.989 191.581,314.115 191.543,314.050 191.439 C 313.870 191.148,313.249 191.215,312.800 191.574 M180.618 191.977 C 167.485 194.596,162.628 211.139,172.172 220.743 C 181.135 229.763,195.898 225.620,199.365 213.112 C 202.627 201.340,192.262 189.655,180.618 191.977 M187.292 192.402 C 197.415 194.780,202.634 206.646,197.826 216.354 C 191.878 228.363,174.823 228.212,169.125 216.101 C 163.124 203.344,173.920 189.260,187.292 192.402 M221.667 192.302 C 211.456 194.946,206.328 206.655,211.133 216.354 C 218.834 231.898,241.653 226.229,241.739 208.750 C 241.794 197.770,231.891 189.655,221.667 192.302 M314.580 192.979 L 314.680 194.063 314.749 193.149 C 314.787 192.646,314.742 192.159,314.649 192.065 C 314.555 191.972,314.524 192.383,314.580 192.979 M228.774 192.383 C 241.197 195.016,245.854 210.893,236.940 220.223 C 226.821 230.814,209.583 223.520,209.583 208.646 C 209.583 198.121,218.840 190.277,228.774 192.383 M309.393 195.325 C 309.383 195.561,309.523 195.936,309.703 196.158 C 309.883 196.381,309.967 196.438,309.889 196.286 C 309.811 196.134,309.671 195.759,309.579 195.452 C 309.444 195.006,309.407 194.981,309.393 195.325 M316.345 196.056 C 316.269 196.179,316.006 196.360,315.760 196.460 C 315.455 196.583,315.418 196.644,315.645 196.653 C 315.828 196.661,316.147 196.479,316.354 196.250 C 316.562 196.021,316.675 195.833,316.607 195.833 C 316.539 195.833,316.421 195.934,316.345 196.056 M314.640 197.708 C 314.640 198.224,314.681 198.435,314.730 198.177 C 314.780 197.919,314.780 197.497,314.730 197.240 C 314.681 196.982,314.640 197.193,314.640 197.708 M161.410 197.651 C 161.784 197.697,162.347 197.696,162.660 197.649 C 162.973 197.601,162.667 197.563,161.979 197.565 C 161.292 197.566,161.036 197.605,161.410 197.651 M174.678 198.802 L 173.854 199.688 174.740 198.864 C 175.227 198.411,175.625 198.013,175.625 197.979 C 175.625 197.821,175.444 197.979,174.678 198.802 M144.021 200.208 C 144.021 200.839,144.060 201.096,144.108 200.781 C 144.155 200.466,144.155 199.951,144.108 199.635 C 144.060 199.320,144.021 199.578,144.021 200.208 M188.393 200.521 C 188.394 201.094,188.435 201.303,188.483 200.987 C 188.531 200.670,188.529 200.201,188.480 199.945 C 188.431 199.689,188.391 199.948,188.393 200.521 M213.390 204.792 C 213.390 205.307,213.431 205.518,213.480 205.260 C 213.530 205.003,213.530 204.581,213.480 204.323 C 213.431 204.065,213.390 204.276,213.390 204.792 M92.845 204.964 C 92.655 205.174,92.500 205.429,92.500 205.532 C 92.500 205.634,92.646 205.509,92.824 205.255 C 93.214 204.698,93.872 204.659,94.463 205.156 C 94.895 205.520,94.895 205.520,94.499 205.052 C 94.019 204.485,93.313 204.447,92.845 204.964 M94.825 206.302 C 94.794 207.030,94.831 207.081,95.365 207.055 C 95.837 207.032,95.858 207.011,95.481 206.938 C 95.149 206.873,95.002 206.668,94.941 206.185 C 94.862 205.547,94.857 205.551,94.825 206.302 M268.854 210.208 C 269.650 211.010,270.348 211.667,270.405 211.667 C 270.463 211.667,269.858 211.010,269.063 210.208 C 268.267 209.406,267.568 208.750,267.511 208.750 C 267.454 208.750,268.058 209.406,268.854 210.208 M92.070 209.700 C 92.449 209.772,92.718 209.972,92.775 210.224 C 92.848 210.542,92.862 210.527,92.840 210.159 C 92.818 209.783,92.675 209.677,92.135 209.635 C 91.492 209.586,91.488 209.589,92.070 209.700 M219.115 210.564 C 219.372 210.613,219.794 210.613,220.052 210.564 C 220.310 210.514,220.099 210.473,219.583 210.473 C 219.068 210.473,218.857 210.514,219.115 210.564 M93.209 211.198 C 93.428 211.456,93.812 211.667,94.063 211.667 C 94.313 211.667,94.697 211.456,94.916 211.198 C 95.312 210.730,95.312 210.730,94.879 211.094 C 94.641 211.294,94.274 211.458,94.063 211.458 C 93.851 211.458,93.484 211.294,93.246 211.094 C 92.813 210.730,92.813 210.730,93.209 211.198 M136.354 225.208 C 136.176 225.552,136.078 225.833,136.135 225.833 C 136.192 225.833,136.385 225.552,136.563 225.208 C 136.740 224.865,136.839 224.583,136.782 224.583 C 136.724 224.583,136.532 224.865,136.354 225.208 M277.548 231.250 C 277.548 231.651,277.591 231.815,277.644 231.615 C 277.696 231.414,277.696 231.086,277.644 230.885 C 277.591 230.685,277.548 230.849,277.548 231.250 M277.771 233.542 C 277.771 234.172,277.810 234.430,277.858 234.115 C 277.905 233.799,277.905 233.284,277.858 232.969 C 277.810 232.654,277.771 232.911,277.771 233.542 M274.873 236.563 C 274.873 238.052,274.906 238.634,274.946 237.856 C 274.987 237.078,274.986 235.859,274.946 235.148 C 274.905 234.436,274.872 235.073,274.873 236.563 M132.344 236.979 C 132.347 237.438,132.389 237.600,132.439 237.341 C 132.489 237.082,132.487 236.707,132.435 236.508 C 132.383 236.309,132.342 236.521,132.344 236.979 M277.771 239.792 C 277.771 240.422,277.810 240.680,277.858 240.365 C 277.905 240.049,277.905 239.534,277.858 239.219 C 277.810 238.904,277.771 239.161,277.771 239.792 M89.964 245.781 C 96.074 245.812,106.012 245.812,112.047 245.781 C 118.083 245.751,113.083 245.725,100.938 245.725 C 88.792 245.725,83.854 245.751,89.964 245.781 M193.812 246.667 C 193.812 247.297,193.851 247.555,193.899 247.240 C 193.947 246.924,193.947 246.409,193.899 246.094 C 193.851 245.779,193.812 246.036,193.812 246.667 M78.043 246.371 C 77.809 246.982,77.914 247.433,78.385 247.832 L 78.854 248.229 78.462 247.766 C 78.182 247.435,78.107 247.123,78.197 246.672 C 78.332 245.995,78.250 245.833,78.043 246.371 M305.401 246.198 C 325.947 246.248,327.393 246.275,327.797 246.616 C 328.229 246.979,328.229 246.978,327.832 246.510 L 327.435 246.042 305.436 246.093 L 283.438 246.144 305.401 246.198 M327.803 247.931 C 327.728 248.054,327.464 248.235,327.218 248.335 C 326.913 248.458,326.876 248.519,327.103 248.528 C 327.286 248.536,327.605 248.354,327.813 248.125 C 328.020 247.896,328.134 247.708,328.065 247.708 C 327.997 247.708,327.879 247.809,327.803 247.931 M333.723 248.598 C 333.812 248.687,335.752 248.733,338.036 248.702 L 342.188 248.645 337.875 248.541 C 335.502 248.484,333.634 248.510,333.723 248.598 M269.583 261.354 C 268.730 262.214,268.078 262.917,268.135 262.917 C 268.193 262.917,268.938 262.214,269.792 261.354 C 270.645 260.495,271.297 259.792,271.240 259.792 C 271.182 259.792,270.437 260.495,269.583 261.354 M202.760 262.649 C 203.076 262.697,203.591 262.697,203.906 262.649 C 204.221 262.601,203.964 262.562,203.333 262.562 C 202.703 262.562,202.445 262.601,202.760 262.649 M205.781 262.653 C 206.268 262.696,207.065 262.696,207.552 262.653 C 208.039 262.609,207.641 262.573,206.667 262.573 C 205.693 262.573,205.294 262.609,205.781 262.653 M143.958 264.440 C 143.958 264.476,144.263 264.781,144.635 265.117 L 145.313 265.729 144.701 265.052 C 144.130 264.421,143.958 264.279,143.958 264.440 M247.867 265.981 C 248.126 266.031,248.501 266.029,248.700 265.976 C 248.900 265.924,248.688 265.884,248.229 265.886 C 247.771 265.888,247.608 265.931,247.867 265.981 M250.677 268.894 C 250.878 268.946,251.206 268.946,251.406 268.894 C 251.607 268.841,251.443 268.798,251.042 268.798 C 250.641 268.798,250.477 268.841,250.677 268.894 M162.126 269.113 C 162.895 269.153,164.207 269.153,165.043 269.113 C 165.879 269.074,165.250 269.041,163.646 269.041 C 162.042 269.040,161.358 269.073,162.126 269.113 M238.277 269.109 C 238.646 269.155,239.303 269.155,239.735 269.110 C 240.167 269.065,239.865 269.028,239.063 269.027 C 238.260 269.026,237.907 269.063,238.277 269.109 M246.828 269.111 C 247.318 269.155,248.068 269.155,248.495 269.110 C 248.922 269.065,248.521 269.029,247.604 269.030 C 246.688 269.031,246.338 269.067,246.828 269.111 M165.677 272.227 C 165.878 272.279,166.206 272.279,166.406 272.227 C 166.607 272.175,166.443 272.132,166.042 272.132 C 165.641 272.132,165.477 272.175,165.677 272.227 " fill="#24262c" fill-rule="evenodd"/><path id="path4" d="M185.417 155.899 C 185.417 155.934,185.721 156.239,186.094 156.576 L 186.771 157.188 186.159 156.510 C 185.589 155.879,185.417 155.738,185.417 155.899 M180.575 156.606 C 180.834 156.656,181.209 156.654,181.409 156.601 C 181.608 156.549,181.396 156.509,180.938 156.511 C 180.479 156.513,180.316 156.556,180.575 156.606 M183.542 158.607 C 183.542 158.643,183.846 158.947,184.219 159.284 L 184.896 159.896 184.284 159.219 C 183.714 158.588,183.542 158.446,183.542 158.607 M235.833 161.107 C 235.833 161.143,236.138 161.447,236.510 161.784 L 237.188 162.396 236.576 161.719 C 236.005 161.088,235.833 160.946,235.833 161.107 M160.473 172.917 C 160.473 173.432,160.514 173.643,160.564 173.385 C 160.613 173.128,160.613 172.706,160.564 172.448 C 160.514 172.190,160.473 172.401,160.473 172.917 M180.882 180.625 C 180.882 181.026,180.925 181.190,180.977 180.990 C 181.029 180.789,181.029 180.461,180.977 180.260 C 180.925 180.060,180.882 180.224,180.882 180.625 M234.792 184.479 C 235.530 185.224,236.181 185.833,236.238 185.833 C 236.295 185.833,235.738 185.224,235.000 184.479 C 234.262 183.734,233.611 183.125,233.554 183.125 C 233.496 183.125,234.053 183.734,234.792 184.479 M168.173 185.833 C 168.173 186.234,168.216 186.398,168.269 186.198 C 168.321 185.997,168.321 185.669,168.269 185.469 C 168.216 185.268,168.173 185.432,168.173 185.833 M152.083 188.438 C 151.577 188.953,151.210 189.375,151.267 189.375 C 151.325 189.375,151.786 188.953,152.292 188.438 C 152.798 187.922,153.165 187.500,153.108 187.500 C 153.050 187.500,152.589 187.922,152.083 188.438 M232.083 189.479 C 232.706 190.109,233.262 190.625,233.319 190.625 C 233.376 190.625,232.914 190.109,232.292 189.479 C 231.669 188.849,231.113 188.333,231.056 188.333 C 230.999 188.333,231.461 188.849,232.083 189.479 M180.417 191.574 C 166.759 194.502,162.024 211.848,172.250 221.495 C 182.190 230.871,198.195 224.895,200.220 211.051 C 201.911 199.486,191.458 189.206,180.417 191.574 M187.604 191.992 C 202.413 195.990,204.654 216.857,191.036 223.948 C 177.439 231.027,162.543 216.910,168.153 202.262 C 171.161 194.408,179.752 189.873,187.604 191.992 M224.531 191.612 C 225.133 191.654,226.117 191.654,226.719 191.612 C 227.320 191.570,226.828 191.535,225.625 191.535 C 224.422 191.535,223.930 191.570,224.531 191.612 M230.313 192.366 C 235.046 193.901,238.865 197.477,240.761 202.152 C 241.141 203.088,241.452 203.714,241.452 203.542 C 241.456 202.268,239.002 198.168,237.091 196.258 C 234.959 194.125,230.825 191.838,229.186 191.884 C 229.004 191.889,229.510 192.106,230.313 192.366 M219.520 192.590 C 215.804 194.119,212.611 197.111,210.730 200.829 C 210.070 202.135,209.371 204.075,209.384 204.564 C 209.389 204.746,209.608 204.240,209.870 203.438 C 211.578 198.214,215.357 194.250,220.310 192.486 C 220.884 192.281,221.214 192.109,221.042 192.104 C 220.870 192.098,220.185 192.317,219.520 192.590 M186.458 196.771 C 186.847 197.172,187.212 197.500,187.269 197.500 C 187.327 197.500,187.055 197.172,186.667 196.771 C 186.278 196.370,185.913 196.042,185.856 196.042 C 185.798 196.042,186.070 196.370,186.458 196.771 M254.239 198.750 C 254.239 199.724,254.275 200.122,254.319 199.635 C 254.363 199.148,254.363 198.352,254.319 197.865 C 254.275 197.378,254.239 197.776,254.239 198.750 M147.155 200.104 C 147.156 201.021,147.192 201.370,147.236 200.880 C 147.280 200.390,147.280 199.640,147.235 199.213 C 147.190 198.787,147.154 199.188,147.155 200.104 M171.935 204.688 C 171.936 205.260,171.977 205.470,172.024 205.153 C 172.072 204.837,172.071 204.368,172.022 204.112 C 171.972 203.855,171.933 204.115,171.935 204.688 M241.595 204.688 C 241.665 205.146,241.756 205.560,241.798 205.608 C 241.956 205.787,241.838 204.671,241.657 204.271 C 241.525 203.980,241.507 204.107,241.595 204.688 M241.928 206.563 C 241.930 207.021,241.973 207.184,242.022 206.925 C 242.072 206.666,242.070 206.291,242.018 206.091 C 241.966 205.892,241.925 206.104,241.928 206.563 M209.015 207.083 C 209.015 207.599,209.056 207.810,209.105 207.552 C 209.155 207.294,209.155 206.872,209.105 206.615 C 209.056 206.357,209.015 206.568,209.015 207.083 M242.143 208.646 C 242.144 209.219,242.185 209.428,242.233 209.112 C 242.281 208.795,242.279 208.326,242.230 208.070 C 242.181 207.814,242.141 208.073,242.143 208.646 M209.018 210.313 C 209.019 210.885,209.060 211.095,209.108 210.778 C 209.156 210.462,209.154 209.993,209.105 209.737 C 209.056 209.480,209.016 209.740,209.018 210.313 M241.903 210.644 C 241.721 215.450,237.718 221.381,233.039 223.777 C 232.070 224.273,231.308 224.711,231.346 224.749 C 231.687 225.090,235.529 222.596,237.128 220.997 C 239.910 218.215,242.459 212.703,242.027 210.403 C 241.956 210.026,241.924 210.088,241.903 210.644 M209.384 212.728 C 209.263 217.038,216.510 224.545,221.557 225.336 C 221.904 225.391,221.531 225.212,220.729 224.940 C 215.446 223.147,211.638 219.259,209.870 213.854 C 209.608 213.052,209.389 212.545,209.384 212.728 M228.854 225.317 C 228.264 225.469,228.038 225.587,228.333 225.589 C 228.620 225.591,229.229 225.469,229.688 225.318 C 230.751 224.968,230.216 224.967,228.854 225.317 M224.435 225.779 C 225.098 225.821,226.129 225.820,226.726 225.778 C 227.324 225.736,226.781 225.702,225.521 225.703 C 224.260 225.703,223.772 225.738,224.435 225.779 M203.854 239.571 C 203.618 239.665,204.114 239.696,205.000 239.643 C 207.035 239.522,207.334 239.408,205.625 239.406 C 204.880 239.405,204.083 239.479,203.854 239.571 M207.344 239.727 C 207.544 239.779,207.872 239.779,208.073 239.727 C 208.273 239.675,208.109 239.632,207.708 239.632 C 207.307 239.632,207.143 239.675,207.344 239.727 M216.404 245.981 C 216.521 247.626,216.631 247.842,216.647 246.458 C 216.654 245.828,216.583 245.191,216.489 245.043 C 216.394 244.893,216.356 245.307,216.404 245.981 M202.188 247.510 C 201.897 247.641,202.023 247.660,202.604 247.572 C 203.063 247.502,203.477 247.410,203.524 247.368 C 203.703 247.210,202.587 247.329,202.188 247.510 M208.976 247.367 C 209.023 247.408,209.344 247.504,209.688 247.581 C 210.144 247.683,210.228 247.664,210.000 247.510 C 209.719 247.319,208.767 247.186,208.976 247.367 M213.229 248.750 C 213.573 248.837,214.135 248.909,214.479 248.910 C 215.005 248.910,214.971 248.883,214.271 248.738 C 213.216 248.520,212.363 248.530,213.229 248.750 M219.855 257.239 C 221.093 257.276,223.062 257.276,224.230 257.239 C 225.398 257.202,224.385 257.171,221.979 257.172 C 219.573 257.172,218.617 257.202,219.855 257.239 M213.909 257.439 C 214.168 257.489,214.543 257.487,214.742 257.435 C 214.941 257.383,214.729 257.342,214.271 257.344 C 213.813 257.347,213.650 257.389,213.909 257.439 M146.875 262.813 C 147.613 263.557,148.264 264.167,148.321 264.167 C 148.379 264.167,147.822 263.557,147.083 262.813 C 146.345 262.068,145.694 261.458,145.637 261.458 C 145.580 261.458,146.137 262.068,146.875 262.813 M241.521 265.989 C 242.529 266.027,244.123 266.027,245.062 265.988 C 246.002 265.950,245.177 265.918,243.229 265.919 C 241.281 265.919,240.512 265.950,241.521 265.989 M168.594 268.477 C 168.794 268.529,169.122 268.529,169.323 268.477 C 169.523 268.425,169.359 268.382,168.958 268.382 C 168.557 268.382,168.393 268.425,168.594 268.477 M165.677 268.691 C 165.992 268.739,166.508 268.739,166.823 268.691 C 167.138 268.643,166.880 268.604,166.250 268.604 C 165.620 268.604,165.362 268.643,165.677 268.691 M162.552 268.894 C 162.753 268.946,163.081 268.946,163.281 268.894 C 163.482 268.841,163.318 268.798,162.917 268.798 C 162.516 268.798,162.352 268.841,162.552 268.894 " stroke="none" fill="#44444c" fill-rule="evenodd"/></g><script xmlns=""/></svg>